<svg width="144" height="33" viewBox="0 0 144 33" fill="none" xmlns="http://www.w3.org/2000/svg">
<path d="M7.876 25.36C6.316 25.36 4.828 25.096 3.412 24.568C1.996 24.016 0.868 23.224 0.028 22.192L3.196 18.088C4.156 18.88 5.104 19.492 6.04 19.924C7 20.356 7.9 20.572 8.74 20.572C9.076 20.572 9.328 20.524 9.496 20.428C9.688 20.332 9.82 20.212 9.892 20.068C9.988 19.9 10.036 19.708 10.036 19.492C10.036 19.228 9.892 18.976 9.604 18.736C9.316 18.472 8.788 18.22 8.02 17.98C6.652 17.524 5.548 17.08 4.708 16.648C3.868 16.192 3.244 15.7 2.836 15.172C2.452 14.62 2.26 13.984 2.26 13.264C2.26 11.848 2.656 10.576 3.448 9.448C4.264 8.296 5.344 7.384 6.688 6.712C8.056 6.016 9.556 5.668 11.188 5.668C12.532 5.668 13.756 5.848 14.86 6.208C15.964 6.568 17.032 7.3 18.064 8.404L14.644 12.508C13.66 11.74 12.832 11.2 12.16 10.888C11.488 10.552 10.84 10.384 10.216 10.384C9.952 10.384 9.712 10.432 9.496 10.528C9.304 10.624 9.148 10.756 9.028 10.924C8.932 11.092 8.884 11.296 8.884 11.536C8.884 11.848 9.04 12.112 9.352 12.328C9.688 12.52 10.276 12.748 11.116 13.012C12.508 13.42 13.624 13.864 14.464 14.344C15.304 14.8 15.916 15.316 16.3 15.892C16.684 16.468 16.876 17.152 16.876 17.944C16.876 19.408 16.492 20.704 15.724 21.832C14.98 22.936 13.936 23.8 12.592 24.424C11.248 25.048 9.676 25.36 7.876 25.36ZM21.4247 25.36C18.4727 25.36 16.9967 23.872 16.9967 20.896C16.9967 20.536 17.0207 20.164 17.0687 19.78C17.1167 19.372 17.1887 18.952 17.2847 18.52L19.9487 6.064H26.7527L24.4487 16.972C24.3767 17.332 24.3407 17.656 24.3407 17.944C24.3407 19.048 24.7967 19.6 25.7087 19.6C25.9967 19.6 26.2967 19.552 26.6087 19.456C26.9207 19.36 27.2687 19.168 27.6527 18.88C28.0607 18.592 28.4927 18.184 28.9487 17.656L31.4327 6.064H38.2727L35.8607 17.44C35.8367 17.608 35.8127 17.764 35.7887 17.908C35.7647 18.052 35.7527 18.184 35.7527 18.304C35.7527 18.904 36.0767 19.216 36.7247 19.24L35.5007 25C34.8767 25.12 34.3127 25.204 33.8087 25.252C33.3287 25.324 32.9087 25.36 32.5487 25.36C31.5167 25.36 30.6647 25.168 29.9927 24.784C29.3447 24.376 29.0207 23.692 29.0207 22.732C29.0207 22.66 29.0207 22.588 29.0207 22.516C29.0447 22.444 29.0567 22.372 29.0567 22.3C29.0807 22.204 29.0927 22.12 29.0927 22.048C28.0127 23.224 26.8367 24.076 25.5647 24.604C24.2927 25.108 22.9127 25.36 21.4247 25.36ZM40.5466 6.064H46.4866L45.8746 8.908C46.7146 7.876 47.6626 7.084 48.7186 6.532C49.7746 5.98 50.9746 5.704 52.3186 5.704C53.6626 5.704 54.8146 6.04 55.7746 6.712C56.7586 7.36 57.5146 8.26 58.0426 9.412C58.5706 10.54 58.8346 11.848 58.8346 13.336C58.8346 14.944 58.5586 16.48 58.0066 17.944C57.4546 19.384 56.7106 20.668 55.7746 21.796C54.8386 22.9 53.7586 23.776 52.5346 24.424C51.3346 25.048 50.0866 25.36 48.7906 25.36C47.5186 25.36 46.4626 25.096 45.6226 24.568C44.7826 24.016 44.2306 23.224 43.9666 22.192L41.7346 32.668H34.8946L40.5466 6.064ZM47.6386 19.6C48.1426 19.6 48.6346 19.468 49.1146 19.204C49.5946 18.916 50.0266 18.532 50.4106 18.052C50.7946 17.572 51.0946 17.02 51.3106 16.396C51.5506 15.772 51.6706 15.124 51.6706 14.452C51.6706 13.852 51.5626 13.336 51.3466 12.904C51.1546 12.448 50.8666 12.1 50.4826 11.86C50.0986 11.596 49.6306 11.464 49.0786 11.464C48.7906 11.464 48.5146 11.512 48.2506 11.608C47.9866 11.68 47.7226 11.8 47.4586 11.968C47.1946 12.112 46.9306 12.304 46.6666 12.544C46.4026 12.784 46.1266 13.072 45.8386 13.408L45.1186 16.684C45.2146 17.236 45.3706 17.74 45.5866 18.196C45.8266 18.628 46.1266 18.976 46.4866 19.24C46.8466 19.48 47.2306 19.6 47.6386 19.6ZM61.2817 6.064H67.2217L66.6097 8.908C67.4497 7.876 68.3977 7.084 69.4537 6.532C70.5097 5.98 71.7097 5.704 73.0537 5.704C74.3977 5.704 75.5497 6.04 76.5097 6.712C77.4937 7.36 78.2497 8.26 78.7777 9.412C79.3057 10.54 79.5697 11.848 79.5697 13.336C79.5697 14.944 79.2937 16.48 78.7417 17.944C78.1897 19.384 77.4457 20.668 76.5097 21.796C75.5737 22.9 74.4937 23.776 73.2697 24.424C72.0697 25.048 70.8217 25.36 69.5257 25.36C68.2537 25.36 67.1977 25.096 66.3577 24.568C65.5177 24.016 64.9657 23.224 64.7017 22.192L62.4697 32.668H55.6297L61.2817 6.064ZM68.3737 19.6C68.8777 19.6 69.3697 19.468 69.8497 19.204C70.3297 18.916 70.7617 18.532 71.1457 18.052C71.5297 17.572 71.8297 17.02 72.0457 16.396C72.2857 15.772 72.4057 15.124 72.4057 14.452C72.4057 13.852 72.2977 13.336 72.0817 12.904C71.8897 12.448 71.6017 12.1 71.2177 11.86C70.8337 11.596 70.3657 11.464 69.8137 11.464C69.5257 11.464 69.2497 11.512 68.9857 11.608C68.7217 11.68 68.4577 11.8 68.1937 11.968C67.9297 12.112 67.6657 12.304 67.4017 12.544C67.1377 12.784 66.8617 13.072 66.5737 13.408L65.8537 16.684C65.9497 17.236 66.1057 17.74 66.3217 18.196C66.5617 18.628 66.8617 18.976 67.2217 19.24C67.5817 19.48 67.9657 19.6 68.3737 19.6ZM87.2369 25.36C85.2449 25.36 83.6249 25 82.3769 24.28C81.1529 23.536 80.2529 22.552 79.6769 21.328C79.1249 20.104 78.8489 18.76 78.8489 17.296C78.8489 15.784 79.1249 14.332 79.6769 12.94C80.2289 11.548 81.0209 10.312 82.0529 9.232C83.0849 8.128 84.3329 7.264 85.7969 6.64C87.2849 6.016 88.9649 5.704 90.8369 5.704C92.8529 5.704 94.4729 6.064 95.6969 6.784C96.9209 7.504 97.8089 8.476 98.3609 9.7C98.9369 10.9 99.2249 12.244 99.2249 13.732C99.2249 15.244 98.9489 16.696 98.3969 18.088C97.8449 19.48 97.0529 20.728 96.0209 21.832C94.9889 22.912 93.7289 23.776 92.2409 24.424C90.7769 25.048 89.1089 25.36 87.2369 25.36ZM88.2089 19.6C88.7129 19.6 89.1929 19.48 89.6489 19.24C90.1289 18.976 90.5489 18.616 90.9089 18.16C91.2929 17.68 91.5809 17.128 91.7729 16.504C91.9889 15.88 92.0969 15.208 92.0969 14.488C92.0969 13.84 92.0129 13.3 91.8449 12.868C91.6769 12.412 91.4249 12.064 91.0889 11.824C90.7529 11.584 90.3449 11.464 89.8649 11.464C89.3609 11.464 88.8689 11.596 88.3889 11.86C87.9329 12.1 87.5129 12.46 87.1289 12.94C86.7689 13.396 86.4809 13.936 86.2649 14.56C86.0729 15.184 85.9769 15.856 85.9769 16.576C85.9769 17.2 86.0609 17.74 86.2289 18.196C86.3969 18.652 86.6489 19 86.9849 19.24C87.3209 19.48 87.7289 19.6 88.2089 19.6ZM101.698 6.064H107.962L107.17 9.664C108.082 8.392 109.09 7.42 110.194 6.748C111.298 6.052 112.378 5.704 113.434 5.704C113.698 5.704 113.878 5.704 113.974 5.704C114.07 5.704 114.154 5.716 114.226 5.74L112.93 11.896C111.706 11.896 110.554 12.04 109.474 12.328C108.394 12.616 107.53 13.096 106.882 13.768L104.506 25H97.6662L101.698 6.064ZM112.757 21.544C112.757 21.28 112.769 21.016 112.793 20.752C112.817 20.488 112.865 20.2 112.937 19.888L114.773 11.212H112.577L113.693 6.064H115.889L117.149 0.123998H123.989L122.729 6.064H126.185L125.105 11.212H121.613L120.281 17.476C120.257 17.596 120.233 17.716 120.209 17.836C120.209 17.932 120.209 18.028 120.209 18.124C120.209 18.508 120.305 18.784 120.497 18.952C120.689 19.096 120.953 19.168 121.289 19.168C121.481 19.168 121.697 19.144 121.937 19.096C122.201 19.048 122.477 18.976 122.765 18.88C123.077 18.784 123.389 18.676 123.701 18.556L123.773 23.956C123.077 24.22 122.357 24.472 121.613 24.712C120.869 24.928 120.137 25.096 119.417 25.216C118.697 25.336 118.001 25.396 117.329 25.396C116.033 25.396 114.941 25.108 114.053 24.532C113.189 23.956 112.757 22.96 112.757 21.544ZM129.967 30.292C128.215 30.292 126.703 30.052 125.431 29.572C124.183 29.092 123.103 28.372 122.191 27.412L126.691 22.444C127.243 22.972 127.855 23.368 128.527 23.632C129.199 23.896 129.991 24.028 130.903 24.028C131.839 24.028 132.583 23.92 133.135 23.704C133.687 23.488 134.083 23.164 134.323 22.732C134.563 22.3 134.683 21.772 134.683 21.148C134.683 20.452 134.383 19.948 133.783 19.636C133.183 19.3 132.223 19.132 130.903 19.132H129.823L130.831 14.38H132.055C132.823 14.38 133.507 14.26 134.107 14.02C134.731 13.78 135.211 13.444 135.547 13.012C135.907 12.58 136.087 12.076 136.087 11.5C136.087 11.044 135.943 10.696 135.655 10.456C135.391 10.192 134.983 10.06 134.431 10.06C133.687 10.06 132.931 10.276 132.163 10.708C131.395 11.116 130.663 11.74 129.967 12.58L126.727 7.504C127.423 6.856 128.287 6.292 129.319 5.812C130.375 5.332 131.515 4.96 132.739 4.696C133.987 4.408 135.223 4.264 136.447 4.264C138.727 4.264 140.527 4.756 141.847 5.74C143.167 6.7 143.827 7.984 143.827 9.592C143.827 10.672 143.551 11.704 142.999 12.688C142.447 13.648 141.727 14.476 140.839 15.172C139.951 15.844 139.003 16.276 137.995 16.468C139.123 16.684 139.999 17.272 140.623 18.232C141.271 19.168 141.595 20.296 141.595 21.616C141.595 23.368 141.103 24.892 140.119 26.188C139.159 27.484 137.803 28.492 136.051 29.212C134.323 29.932 132.295 30.292 129.967 30.292Z" fill="black"/>
</svg>
